<svg viewBox="0 0 100 100" xmlns="http://www.w3.org/2000/svg">
  <path fill-rule="evenodd" clip-rule="evenodd" fill="currentColor" d="M50,15 C70,15 85,30 85,50 C85,65 85,75 85,85 C85,90 85,95 85,100 L78,92 L71,100 L64,92 L57,100 L50,92 L43,100 L36,92 L29,100 L22,92 L15,100 C15,95 15,90 15,85 C15,75 15,65 15,50 C15,30 30,15 50,15 Z M35,45 C40.523,45 45,49.477 45,55 C45,60.523 40.523,65 35,65 C29.477,65 25,60.523 25,55 C25,49.477 29.477,45 35,45 Z M65,45 C70.523,45 75,49.477 75,55 C75,60.523 70.523,65 65,65 C59.477,65 55,60.523 55,55 C55,49.477 59.477,45 65,45 Z"/>
</svg>